<svg width="400" height="300" viewBox="0 0 400 300" fill="none" xmlns="http://www.w3.org/2000/svg">
  <!-- Background -->
  <rect width="400" height="300" fill="#f8fffe"/>
  
  <!-- Earth/Globe -->
  <circle cx="200" cy="150" r="80" fill="#4ade80" opacity="0.8"/>
  <circle cx="200" cy="150" r="75" fill="none" stroke="#16a34a" stroke-width="2"/>
  
  <!-- Continents/Land masses -->
  <path d="M160 120 Q180 115 200 125 Q220 115 240 130 Q225 145 200 150 Q175 145 160 135 Z" fill="#166534"/>
  <path d="M180 160 Q195 155 210 165 Q200 175 185 170 Z" fill="#166534"/>
  <circle cx="170" cy="140" r="8" fill="#166534"/>
  <circle cx="230" cy="160" r="6" fill="#166534"/>
  
  <!-- Wind Turbines -->
  <g transform="translate(80, 80)">
    <line x1="0" y1="40" x2="0" y2="0" stroke="#374151" stroke-width="3"/>
    <path d="M0 0 L-8 -15 L8 -15 Z" fill="#e5e7eb"/>
    <path d="M0 0 L15 8 L15 -8 Z" fill="#e5e7eb"/>
    <path d="M0 0 L-15 8 L-15 -8 Z" fill="#e5e7eb"/>
  </g>
  
  <g transform="translate(320, 70)">
    <line x1="0" y1="35" x2="0" y2="0" stroke="#374151" stroke-width="2"/>
    <path d="M0 0 L-6 -12 L6 -12 Z" fill="#e5e7eb"/>
    <path d="M0 0 L12 6 L12 -6 Z" fill="#e5e7eb"/>
    <path d="M0 0 L-12 6 L-12 -6 Z" fill="#e5e7eb"/>
  </g>
  
  <!-- Solar Panels -->
  <rect x="50" y="220" width="40" height="20" fill="#1f2937" rx="2"/>
  <rect x="52" y="222" width="36" height="16" fill="#3b82f6" rx="1"/>
  <g stroke="#1e40af" stroke-width="0.5">
    <line x1="58" y1="222" x2="58" y2="238"/>
    <line x1="64" y1="222" x2="64" y2="238"/>
    <line x1="70" y1="222" x2="70" y2="238"/>
    <line x1="76" y1="222" x2="76" y2="238"/>
    <line x1="82" y1="222" x2="82" y2="238"/>
  </g>
  
  <rect x="310" y="210" width="35" height="18" fill="#1f2937" rx="2"/>
  <rect x="312" y="212" width="31" height="14" fill="#3b82f6" rx="1"/>
  <g stroke="#1e40af" stroke-width="0.5">
    <line x1="317" y1="212" x2="317" y2="226"/>
    <line x1="322" y1="212" x2="322" y2="226"/>
    <line x1="327" y1="212" x2="327" y2="226"/>
    <line x1="332" y1="212" x2="332" y2="226"/>
    <line x1="337" y1="212" x2="337" y2="226"/>
  </g>
  
  <!-- Trees -->
  <circle cx="130" cy="250" r="12" fill="#22c55e"/>
  <rect x="128" y="250" width="4" height="15" fill="#7c2d12"/>
  
  <circle cx="270" cy="240" r="10" fill="#22c55e"/>
  <rect x="268" y="240" width="4" height="12" fill="#7c2d12"/>
  
  <!-- Career Paths/Arrows -->
  <path d="M150 50 Q200 30 250 50" stroke="#059669" stroke-width="3" fill="none" stroke-dasharray="5,5"/>
  <path d="M245 45 L250 50 L245 55 M250 50 L245 50" stroke="#059669" stroke-width="2" fill="none"/>
  
  <path d="M100 180 Q150 160 200 180" stroke="#0d9488" stroke-width="3" fill="none" stroke-dasharray="5,5"/>
  <path d="M195 175 L200 180 L195 185 M200 180 L195 180" stroke="#0d9488" stroke-width="2" fill="none"/>
  
  <!-- Job Icons -->
  <circle cx="70" cy="45" r="15" fill="#ecfdf5" stroke="#10b981" stroke-width="2"/>
  <path d="M65 40 L75 40 M70 35 L70 50 M65 45 L75 45" stroke="#10b981" stroke-width="2"/>
  
  <circle cx="330" cy="50" r="15" fill="#ecfdf5" stroke="#10b981" stroke-width="2"/>
  <circle cx="330" cy="50" r="8" fill="none" stroke="#10b981" stroke-width="1.5"/>
  <path d="M330 42 L330 58 M322 50 L338 50" stroke="#10b981" stroke-width="2"/>
  
  <!-- Title Text -->
  <text x="200" y="30" text-anchor="middle" font-family="Arial, sans-serif" font-size="18" font-weight="bold" fill="#065f46">
    Climate Career Pathways
  </text>
  
  <!-- Subtitle -->
  <text x="200" y="280" text-anchor="middle" font-family="Arial, sans-serif" font-size="14" fill="#374151">
    Discover Your Green Energy Future
  </text>
</svg> 